<svg id="Lager_1" data-name="Lager 1" xmlns="http://www.w3.org/2000/svg" viewBox="0 0 24 24"><defs><style>.cls-1{fill:#ffffff;}</style></defs><title>instagram</title><path class="cls-1" d="M12,5.31c2.18,0,2.44,0,3.3.05a4.36,4.36,0,0,1,1.51.28,2.69,2.69,0,0,1,1.55,1.55,4.36,4.36,0,0,1,.28,1.51c0,.86.05,1.12.05,3.3s0,2.44-.05,3.3a4.36,4.36,0,0,1-.28,1.51,2.69,2.69,0,0,1-1.55,1.55,4.36,4.36,0,0,1-1.51.28c-.86,0-1.12.05-3.3.05s-2.44,0-3.3-.05a4.36,4.36,0,0,1-1.51-.28,2.69,2.69,0,0,1-1.55-1.55,4.36,4.36,0,0,1-.28-1.51c0-.86-.05-1.12-.05-3.3s0-2.44.05-3.3a4.36,4.36,0,0,1,.28-1.51A2.69,2.69,0,0,1,7.19,5.64,4.36,4.36,0,0,1,8.7,5.36c.86,0,1.12-.05,3.3-.05m0-1.47c-2.22,0-2.49,0-3.37.05a6.09,6.09,0,0,0-2,.38A4.18,4.18,0,0,0,4.27,6.65a6.1,6.1,0,0,0-.38,2c0,.87-.05,1.14-.05,3.36s0,2.49.05,3.37a6.09,6.09,0,0,0,.38,2,4.18,4.18,0,0,0,2.38,2.38,6.09,6.09,0,0,0,2,.38c.88,0,1.15.05,3.37.05s2.49,0,3.37-.05a6.09,6.09,0,0,0,2-.38,4.18,4.18,0,0,0,2.38-2.38,6.09,6.09,0,0,0,.38-2c0-.88.05-1.15.05-3.37s0-2.49-.05-3.36a6.1,6.1,0,0,0-.38-2,4.18,4.18,0,0,0-2.38-2.38,6.09,6.09,0,0,0-2-.38c-.88,0-1.15-.05-3.37-.05"/><path class="cls-1" d="M12,7.81A4.19,4.19,0,1,0,16.19,12,4.2,4.2,0,0,0,12,7.81m0,6.91A2.72,2.72,0,1,1,14.72,12,2.72,2.72,0,0,1,12,14.72"/><path class="cls-1" d="M17.34,7.64a1,1,0,1,1-1-1,1,1,0,0,1,1,1"/></svg>
